<?xml version="1.0" standalone="no"?>
<!DOCTYPE svg PUBLIC "-//W3C//DTD SVG 20010904//EN"
 "http://www.w3.org/TR/2001/REC-SVG-20010904/DTD/svg10.dtd">
<svg version="1.0" xmlns="http://www.w3.org/2000/svg"
 width="250.000000pt" height="250.000000pt" viewBox="0 0 250.000000 250.000000"
 preserveAspectRatio="xMidYMid meet">
<metadata>
Created by potrace 1.11, written by Peter Selinger 2001-2013
</metadata>
<g transform="translate(0.000000,250.000000) scale(0.100000,-0.100000)"
fill="#000000" stroke="none">
<path d="M1118 2095 c-2 -1 -25 -5 -53 -9 -95 -11 -206 -35 -270 -58 -283
-101 -475 -248 -574 -438 -157 -301 -36 -684 240 -764 54 -16 144 -22 186 -12
122 27 219 131 254 271 11 44 11 47 -20 85 -69 87 -88 186 -51 267 35 77 101
65 144 -25 26 -56 56 -102 66 -102 3 0 7 17 8 38 4 88 55 216 106 263 11 11
111 65 221 119 125 62 217 114 245 139 25 23 48 41 52 41 8 0 34 -81 46 -140
7 -36 8 -188 1 -272 -3 -44 1 -54 57 -135 100 -144 100 -150 21 -200 -53 -33
-57 -39 -46 -77 14 -48 4 -64 -47 -72 -25 -3 -61 -4 -80 -1 -18 3 -34 3 -34
-1 0 -9 60 -47 87 -56 34 -11 37 -36 6 -68 -19 -19 -31 -48 -40 -90 -7 -33
-20 -72 -29 -85 -21 -33 -53 -31 -224 15 -102 28 -179 23 -305 -21 -114 -40
-185 -69 -185 -78 0 -3 40 -16 88 -28 49 -13 94 -26 101 -30 7 -5 -52 -40
-153 -91 -92 -46 -166 -86 -166 -88 0 -5 261 5 315 12 22 3 58 8 80 11 48 6
83 12 150 25 28 6 59 12 70 14 96 18 297 84 416 136 282 124 469 316 538 554
20 69 23 94 19 205 -4 105 -9 137 -31 193 -107 277 -391 458 -837 534 -79 14
-362 28 -372 19z"/>
<path d="M1490 1530 c-14 -4 -47 -6 -73 -5 -26 1 -44 -1 -40 -5 12 -11 97 -30
132 -30 21 0 32 -6 36 -21 9 -28 7 -29 -45 -19 -25 5 -46 7 -47 6 -1 -1 28
-19 66 -39 66 -36 69 -36 85 -18 13 14 16 33 14 77 l-3 59 -50 1 c-27 1 -61
-2 -75 -6z"/>
</g>
</svg>
