<?xml version="1.0" encoding="utf-8"?>
<!-- Generator: Adobe Illustrator 22.1.0, SVG Export Plug-In . SVG Version: 6.00 Build 0)  -->
<svg version="1.1" id="Forme_1_copie_2_1_" xmlns="http://www.w3.org/2000/svg" xmlns:xlink="http://www.w3.org/1999/xlink" x="0px"
	 y="0px" viewBox="0 0 1712 1358" style="enable-background:new 0 0 1712 1358;" xml:space="preserve">
<style type="text/css">
	.st0{fill-rule:evenodd;clip-rule:evenodd;fill:#FFFFFF;}
</style>
<g id="Forme_1_copie_2">
	<g>
		<path class="st0" d="M1618,619C1603.4,135.7,934.7,94,859.1,94c-419.2,0-758.9,239.4-758.9,534.7c-2.8,129.2,47,237.5,143.9,308.3
			C401,1035.2,597,962.7,621,755c-20-24-81.3-80.3-66-176c17.3-89.6,65.4-66.8,82-54c9,7,27.3,32.8,34.5,55.8
			C680.8,610.2,712,640,712,640s7.6-175.1,94-227c89.3-49.4,280.5-116.6,335-196c29.3,52.1,53.4,166.3,31.5,288.5
			c-9.2,57.6,96.2,147.1,96.5,183.5c0.2,36.4-61.1,52.9-73.3,69c-12.3,16.1,13,50.2,5.8,63.3C1186.3,854.4,1073,835,1073,835
			s49.3,34.3,68,41c20.3,7.3,27.9,12.9,24,31c-13.5,24.7-29.7,22.1-36,40c-6.3,17.9-3.5,73.9-27.8,104.1
			c-24.2,30.2-128.4-15.8-183.9-25c-19.2-3.2-38.3-6.9-56.6-6.5c-34.1,1.7-115.4,22.7-184.7,52.4c-39,16.1-67,31-67,31l143,40
			c0,0-36.4,24.3-98,55c-105.5,52.6-143,70-143,70s429.4,16.3,791.7-173.2C1505.4,982.6,1620,807.8,1618,619z M990.4,532.8
			c21.1,11,91.4,63.1,102.5,48.9c26.8-26.8,9.1-102.8,9.1-102.8c-47.1-9.3-92,17.4-173,8.4c10,6,19.6,10,48,16.9
			c36.5,8.9,77.5,10.3,77.5,10.3s2.8,23.5,4.5,30.4C1030.9,541.9,1000.8,532,990.4,532.8z"/>
	</g>
</g>
</svg>
